<svg width="28" height="28" viewBox="0 0 28 28" fill="none" xmlns="http://www.w3.org/2000/svg">
<path d="M24.3131 5.37839C23.7173 4.78223 23.0098 4.30931 22.2311 3.98665C21.4524 3.664 20.6177 3.49792 19.7748 3.49792C18.9319 3.49792 18.0973 3.664 17.3186 3.98665C16.5399 4.30931 15.8324 4.78223 15.2365 5.37839L13.9998 6.61505L12.7631 5.37839C11.5595 4.17475 9.92702 3.49855 8.22481 3.49855C6.52261 3.49855 4.89012 4.17475 3.68648 5.37839C2.48284 6.58203 1.80664 8.21452 1.80664 9.91672C1.80664 11.6189 2.48284 13.2514 3.68648 14.4551L13.9998 24.7684L24.3131 14.4551C24.9093 13.8592 25.3822 13.1517 25.7049 12.373C26.0275 11.5943 26.1936 10.7596 26.1936 9.91672C26.1936 9.07382 26.0275 8.23918 25.7049 7.46047C25.3822 6.68177 24.9093 5.97427 24.3131 5.37839Z" fill="white"/>
</svg>
